HIERARCHY
ROOT Hips
{
  OFFSET 50.7119 51.6657 9.24399
  CHANNELS 6 Xposition Yposition Zposition Zrotation Xrotation Yrotation
  JOINT spine
  {
    OFFSET 0 8.81704 0.507024
    CHANNELS 3 Zrotation Xrotation Yrotation
    JOINT spine1
    {
      OFFSET 0 10.7766 0
      CHANNELS 3 Zrotation Xrotation Yrotation
      JOINT spine2
      {
        OFFSET 0 10.3259 0
        CHANNELS 3 Zrotation Xrotation Yrotation
        JOINT Neck
        {
          OFFSET 0 26.511 1.26395
          CHANNELS 3 Zrotation Xrotation Yrotation
          JOINT Head
          {
            OFFSET 0 8.00966 0
            CHANNELS 3 Zrotation Xrotation Yrotation
            End Site
            {
              OFFSET 0 19.3879 -6.39386
            }
          }
        }
        JOINT RightShoulder
        {
          OFFSET -4.34795 11.1512 -0.605422
          CHANNELS 3 Zrotation Xrotation Yrotation
          JOINT RightArm
          {
            OFFSET 0 14.6258 0
            CHANNELS 3 Zrotation Xrotation Yrotation
            JOINT RightArmRoll
            {
              OFFSET 0 7.3834 0
              CHANNELS 3 Zrotation Xrotation Yrotation
              JOINT RightForeArm
              {
                OFFSET 0 21.5052 0
                CHANNELS 3 Zrotation Xrotation Yrotation
                JOINT RightForeArmRoll
                {
                  OFFSET 0 8.28532 0
                  CHANNELS 3 Zrotation Xrotation Yrotation
                  JOINT RightHand
                  {
                    OFFSET 0 16.6268 0
                    CHANNELS 3 Zrotation Xrotation Yrotation
                    End Site
                    {
                      OFFSET 0 0 0
                    }
                  }
                }
              }
            }
          }
        }
        JOINT LeftShoulder
        {
          OFFSET 4.34795 11.1512 -0.605422
          CHANNELS 3 Zrotation Xrotation Yrotation
          JOINT LeftArm
          {
            OFFSET 0 14.6258 0
            CHANNELS 3 Zrotation Xrotation Yrotation
            JOINT LeftArmRoll
            {
              OFFSET 0 7.3834 0
              CHANNELS 3 Zrotation Xrotation Yrotation
              JOINT LeftForeArm
              {
                OFFSET 0 21.5052 0
                CHANNELS 3 Zrotation Xrotation Yrotation
                JOINT LeftForeArmRoll
                {
                  OFFSET 0 8.28532 0
                  CHANNELS 3 Zrotation Xrotation Yrotation
                  JOINT LeftHand
                  {
                    OFFSET 0 16.6268 0
                    CHANNELS 3 Zrotation Xrotation Yrotation
                    End Site
                    {
                      OFFSET 0 0 0
                    }
                  }
                }
              }
            }
          }
        }
      }
    }
  }
  JOINT RightUpLeg
  {
    OFFSET -7.8151 -1.43309 -1.20217
    CHANNELS 3 Zrotation Xrotation Yrotation
    JOINT RightUpLegRoll
    {
      OFFSET 0 19.4959 0
      CHANNELS 3 Zrotation Xrotation Yrotation
      JOINT RightLeg
      {
        OFFSET 0 -24.1427 0
        CHANNELS 3 Zrotation Xrotation Yrotation
        JOINT RightLegRoll
        {
          OFFSET 0 24.2217 0
          CHANNELS 3 Zrotation Xrotation Yrotation
          JOINT RightFoot
          {
            OFFSET 0 20.1605 0
            CHANNELS 3 Zrotation Xrotation Yrotation
            JOINT RightToeBase
            {
              OFFSET 0 16.8532 0
              CHANNELS 3 Zrotation Xrotation Yrotation
              End Site
              {
                OFFSET 0.00714343 8.16187 -0.94078
              }
            }
          }
        }
      }
    }
  }
  JOINT LeftUpLeg
  {
    OFFSET 7.8151 -1.43309 -1.20217
    CHANNELS 3 Zrotation Xrotation Yrotation
    JOINT LeftUpLegRoll
    {
      OFFSET 0 19.496 0
      CHANNELS 3 Zrotation Xrotation Yrotation
      JOINT LeftLeg
      {
        OFFSET 0 24.1426 0
        CHANNELS 3 Zrotation Xrotation Yrotation
        JOINT LeftLegRoll
        {
          OFFSET 0 24.4456 0
          CHANNELS 3 Zrotation Xrotation Yrotation
          JOINT LeftFoot
          {
            OFFSET 0 19.9366 0
            CHANNELS 3 Zrotation Xrotation Yrotation
            JOINT LeftToeBase
            {
              OFFSET 0 16.8532 0
              CHANNELS 3 Zrotation Xrotation Yrotation
              End Site
              {
                OFFSET -0.0320138 8.16186 -0.940781
              }
            }
          }
        }
      }
    }
  }
}
MOTION
Frames: 9
Frame Time: 0.00208333
51.3611 100.706 39.174 0.255162 -1.58932 1.92097 0.221381 -1.89366 -0.0906031 0.425989 0.215091 -0.201721 0.428707 1.86014 -0.209024 -4.50993 29.4059 4.24439 -1.28983 -13.4039 2.19416 64.3646 -1.0333 -1.28998 110.156 20.6078 9.27588 -3.16702e-006 -3.78484e-006 -3.05561e-006 14.7135 0.111579 -0.646831 -7.59334e-007 1.02227e-006 -3.04838 8.02893 -4.95145 0.697688 -63.6337 -5.40336 3.64768 -110.195 16.0163 -2.59553 2.11229e-005 -6.34012e-007 2.33715e-006 -12.9302 3.58117 0.763108 6.70993e-006 -1.61619e-006 3 -8.02888 -4.95146 -0.697675 178.799 0.621202 -0.7341 180 7.01545e-015 178.916 178.929 8.88113 179.569 -3.63445e-006 -4.01359e-006 0.110031 -18.956 68.3635 19.8579 8.17225 25.8546 -2.63405 -177.562 1.88846 2.72206 4.54188e-006 -4.6773e-006 -1.07516 -1.78635 -9.61984 0.261674 -2.31669e-006 -6.61368e-007 -0.141262 19.0308 68.4446 -19.8998 -8.14567 25.3778 3.28944 
51.3469 100.703 39.1323 0.250944 -1.57467 1.92758 0.222149 -1.88897 -0.0899681 0.427999 0.224469 -0.199924 0.430688 1.86952 -0.207253 -4.51886 29.4105 4.24398 -1.28547 -13.4073 2.19117 64.3652 -1.03664 -1.29182 110.157 20.6302 9.26424 -3.16702e-006 -3.78484e-006 -3.05561e-006 14.7159 0.111578 -0.647014 -7.59334e-007 1.02227e-006 -3.04838 8.02893 -4.95145 0.697688 -63.6448 -5.39027 3.64094 -110.188 16.0365 -2.58591 2.11229e-005 -6.34012e-007 2.33715e-006 -12.9335 3.59113 0.764307 6.70993e-006 -1.61619e-006 3 -8.02888 -4.95146 -0.697675 178.803 0.650774 -0.73881 180 7.01545e-015 178.916 178.929 8.88206 179.569 -3.63445e-006 -4.01359e-006 0.109735 -18.9453 68.3511 19.8464 8.1722 25.8539 -2.63473 -177.556 1.92965 2.71867 4.54188e-006 -4.6773e-006 -1.07521 -1.78853 -9.64038 0.260887 -2.31669e-006 -6.61368e-007 -0.141222 19.0334 68.4475 -19.9026 -8.14499 25.3673 3.30374 
51.3379 100.705 39.137 0.246863 -1.56044 1.93427 0.222865 -1.88427 -0.0893319 0.429904 0.233876 -0.198078 0.432562 1.87892 -0.20543 -4.52685 29.4154 4.2431 -1.28164 -13.4112 2.18792 64.3674 -1.04076 -1.29427 110.158 20.6532 9.25289 -3.16702e-006 -3.78484e-006 -3.05561e-006 14.7185 0.111576 -0.647337 -7.59334e-007 1.02227e-006 -3.04838 8.02893 -4.95145 0.697688 -63.6559 -5.37668 3.63391 -110.181 16.0561 -2.57612 2.11229e-005 -6.34012e-007 2.33715e-006 -12.9371 3.60203 0.765601 6.70993e-006 -1.61619e-006 3 -8.02888 -4.95146 -0.697675 178.808 0.67974 -0.743383 180 7.01545e-015 178.916 178.928 8.88302 179.569 -3.63445e-006 -4.01359e-006 0.109459 -18.9347 68.339 19.8352 8.17214 25.853 -2.63536 -177.55 1.97026 2.71533 4.54188e-006 -4.6773e-006 -1.07528 -1.79072 -9.66087 0.260053 -2.31669e-006 -6.61368e-007 -0.141162 19.036 68.4505 -19.9053 -8.14429 25.3565 3.31855 
51.3581 100.706 39.1142 0.242877 -1.54649 1.941 0.223544 -1.87956 -0.0886948 0.431734 0.243303 -0.196196 0.434362 1.88835 -0.20357 -4.53418 29.4206 4.24187 -1.27817 -13.4154 2.18449 64.3707 -1.04544 -1.29714 110.157 20.6766 9.24174 -3.16702e-006 -3.78484e-006 -3.05561e-006 14.7212 0.111575 -0.647758 -7.59334e-007 1.02227e-006 -3.04838 8.02893 -4.95145 0.697688 -63.6668 -5.36275 3.62668 -110.173 16.0753 -2.56621 2.11229e-005 -6.34012e-007 2.33715e-006 -12.9409 3.61359 0.766962 6.70993e-006 -1.61619e-006 3 -8.02888 -4.95146 -0.697675 178.812 0.708282 -0.747861 180 7.01545e-015 178.915 178.928 8.88398 179.569 -3.63445e-006 -4.01359e-006 0.109196 -18.9243 68.3271 19.824 8.17208 25.8521 -2.63597 -177.545 2.01048 2.71202 4.54188e-006 -4.6773e-006 -1.07536 -1.79292 -9.68133 0.259185 -2.31669e-006 -6.61368e-007 -0.141089 19.0386 68.4534 -19.9081 -8.14356 25.3454 3.33373 
51.3495 100.706 39.0985 0.238944 -1.53269 1.94776 0.224201 -1.87484 -0.0880571 0.433521 0.25274 -0.194294 0.436118 1.89779 -0.201689 -4.54113 29.4259 4.24044 -1.27491 -13.4197 2.18096 64.3746 -1.05044 -1.30025 110.155 20.7002 9.23071 -3.16702e-006 -3.78484e-006 -3.05561e-006 14.724 0.111573 -0.648235 -7.59334e-007 1.02227e-006 -3.04838 8.02893 -4.95145 0.697688 -63.6777 -5.34862 3.61933 -110.165 16.0942 -2.55622 2.11229e-005 -6.34012e-007 2.33715e-006 -12.9449 3.62554 0.768362 6.70993e-006 -1.61619e-006 3 -8.02888 -4.95146 -0.697675 178.816 0.736582 -0.752285 180 7.01545e-015 178.915 178.927 8.88499 179.569 -3.63445e-006 -4.01359e-006 0.108942 -18.914 68.3152 19.813 8.17201 25.8511 -2.63656 -177.539 2.05046 2.70874 4.54188e-006 -4.6773e-006 -1.07545 -1.79513 -9.70176 0.258297 -2.31669e-006 -6.61368e-007 -0.141008 19.0411 68.4563 -19.9108 -8.14282 25.3341 3.34911 
51.3527 100.708 39.0807 0.235021 -1.51894 1.95453 0.224854 -1.87012 -0.0874193 0.435298 0.262181 -0.192387 0.437863 1.90722 -0.199803 -4.54799 29.4312 4.23897 -1.2717 -13.4241 2.1774 64.3787 -1.05552 -1.30342 110.153 20.7239 9.2197 -3.16702e-006 -3.78484e-006 -3.05561e-006 14.7268 0.111572 -0.648726 -7.59334e-007 1.02227e-006 -3.04838 8.02893 -4.95145 0.697688 -63.6886 -5.33444 3.61196 -110.158 16.113 -2.54622 2.11229e-005 -6.34012e-007 2.33715e-006 -12.949 3.63758 0.769771 6.70993e-006 -1.61619e-006 3 -8.02888 -4.95146 -0.697675 178.82 0.764822 -0.756695 180 7.01545e-015 178.915 178.926 8.88598 179.569 -3.63445e-006 -4.01359e-006 0.10869 -18.9037 68.3033 19.802 8.17194 25.8501 -2.63715 -177.534 2.09038 2.70546 4.54188e-006 -4.6773e-006 -1.07554 -1.79734 -9.72219 0.257405 -2.31669e-006 -6.61368e-007 -0.140924 19.0436 68.4592 -19.9135 -8.14206 25.3228 3.36453 
51.3565 100.707 39.0459 0.231067 -1.50511 1.96129 0.225517 -1.8654 -0.0867817 0.437094 0.271616 -0.19049 0.439629 1.91666 -0.197928 -4.55503 29.4365 4.23759 -1.26839 -13.4284 2.17389 64.3825 -1.06043 -1.30647 110.152 20.7475 9.20863 -3.16702e-006 -3.78484e-006 -3.05561e-006 14.7296 0.111571 -0.649189 -7.59334e-007 1.02227e-006 -3.04838 8.02893 -4.95145 0.697688 -63.6995 -5.32036 3.60464 -110.15 16.132 -2.53626 2.11229e-005 -6.34012e-007 2.33715e-006 -12.9529 3.64943 0.771161 6.70993e-006 -1.61619e-006 3 -8.02888 -4.95146 -0.697675 178.825 0.793182 -0.761133 180 7.01545e-015 178.915 178.926 8.88698 179.569 -3.63445e-006 -4.01359e-006 0.108433 -18.8933 68.2914 19.791 8.17187 25.8492 -2.63775 -177.528 2.13042 2.70217 4.54188e-006 -4.6773e-006 -1.07563 -1.79955 -9.74263 0.256522 -2.31669e-006 -6.61368e-007 -0.140845 19.0462 68.4621 -19.9162 -8.14131 25.3116 3.37986 
51.3534 100.705 39.0333 0.22704 -1.49108 1.96801 0.226206 -1.8607 -0.0861448 0.438943 0.281036 -0.188618 0.441447 1.92608 -0.196078 -4.56255 29.4416 4.23646 -1.26482 -13.4325 2.17051 64.3854 -1.06496 -1.30921 110.151 20.7707 9.19742 -3.16702e-006 -3.78484e-006 -3.05561e-006 14.7323 0.111569 -0.649582 -7.59334e-007 1.02227e-006 -3.04838 8.02893 -4.95145 0.697688 -63.7104 -5.30653 3.59747 -110.143 16.1513 -2.52637 2.11229e-005 -6.34012e-007 2.33715e-006 -12.9567 3.6608 0.772503 6.70993e-006 -1.61619e-006 3 -8.02888 -4.95146 -0.697675 178.829 0.821846 -0.765639 180 7.01545e-015 178.915 178.925 8.88795 179.57 -3.63445e-006 -4.01359e-006 0.108167 -18.8829 68.2794 19.7799 8.17181 25.8482 -2.63836 -177.523 2.17075 2.69886 4.54188e-006 -4.6773e-006 -1.07571 -1.80175 -9.76309 0.255663 -2.31669e-006 -6.61368e-007 -0.140776 19.0488 68.465 -19.9189 -8.14056 25.3006 3.39492 
51.3448 100.704 39.0051 0.222897 -1.47672 1.97468 0.226936 -1.856 -0.085509 0.440875 0.290435 -0.186786 0.44335 1.93547 -0.194271 -4.57082 29.4464 4.23572 -1.26083 -13.4362 2.16734 64.3871 -1.06885 -1.31148 110.152 20.7935 9.18597 -3.16702e-006 -3.78484e-006 -3.05561e-006 14.7348 0.111568 -0.649863 -7.59334e-007 1.02227e-006 -3.04838 8.02893 -4.95145 0.697688 -63.7215 -5.29309 3.59053 -110.135 16.1711 -2.51662 2.11229e-005 -6.34012e-007 2.33715e-006 -12.9602 3.67142 0.773769 6.70993e-006 -1.61619e-006 3 -8.02888 -4.95146 -0.697675 178.834 0.850993 -0.770255 180 7.01545e-015 178.915 178.925 8.88888 179.57 -3.63445e-006 -4.01359e-006 0.107885 -18.8724 68.2673 19.7686 8.17175 25.8474 -2.63901 -177.517 2.21154 2.69551 4.54188e-006 -4.6773e-006 -1.07577 -1.80394 -9.7836 0.254843 -2.31669e-006 -6.61368e-007 -0.140722 19.0513 68.468 -19.9217 -8.13982 25.2898 3.40956 
